<svg xmlns="http://www.w3.org/2000/svg" viewBox="0 0 423.84 317.46"><defs><style>.cls-1{fill:#fff;}</style></defs><title>Ativo 9</title><g id="Camada_2" data-name="Camada 2"><g id="Camada_1-2" data-name="Camada 1"><path class="cls-1" d="M165.32,118.16c2.13-1.18,3.52-3.18,5.25-4.79,9.49-8.77,19-17.49,29-25.7a542.83,542.83,0,0,1,47.68-35.1,399.66,399.66,0,0,1,46.55-26,310.67,310.67,0,0,1,37.55-15A235.66,235.66,0,0,1,370.09,2.4,190.29,190.29,0,0,1,407.72.2C413,.48,418.27,1.33,423.84,2c-6.69,1.64-13.14,3.11-19.53,4.84-5.59,1.53-11.12,3.29-16.64,5.07a317.9,317.9,0,0,0-33.6,13Q339.9,31.25,326.37,39q-15.17,8.7-29.44,18.78c-8.18,5.75-16.11,11.82-23.86,18.13a480.18,480.18,0,0,0-36.31,33,579.44,579.44,0,0,0-43,48.34Q176.5,179,161.23,202.14q-14.73,22.34-27.6,45.8Q123,267.35,113.56,287.39a10.72,10.72,0,0,1-.59.94c-1.55-2.69-1.78-5.65-2.83-8.34-1.84-4.7-3.43-9.5-5.28-14.2a2.73,2.73,0,0,1,.11-2.49c3.61-7.92,7.65-15.62,11.69-23.32.85-1.64.94-2.43-.9-3.47-5.6-3.18-11.07-6.58-16.54-10-1.71-1.06-2.8-1.09-3.87.9-1.28,2.39-3,4.56-4.36,6.88-.9,1.48-1.48,1.19-2.22-.08-16-27.35-35.7-51.76-58-74.16a392.47,392.47,0,0,0-29-26.6c-2-1.67-2-3.36-1.31-5.47,1.93-5.67,6.12-9.46,11-12.27a50.65,50.65,0,0,1,24-6.72c6.53-.17,12.33,2.4,17.92,5.34,10.42,5.46,18.43,13.78,26.18,22.42,11.16,12.42,22.45,24.72,33.68,37.08.33.37.62.78,1,1.32,5-7.22,10.83-13.42,16.42-19.79a8,8,0,0,0,.76-1.26c.94-.13,1.34-1,1.86-1.56,7.51-8.49,15.27-16.73,23.08-24.94C159.35,124.47,162.77,121.73,165.32,118.16Zm-4.59,51.35c-.17-.78-.9-1.15-1.44-1.59-3.52-2.85-7.13-5.59-10.6-8.5-1.33-1.12-2-.89-3,.37-6.4,8-13.05,15.79-19.3,23.89-6.66,8.63-13,17.52-19.42,26.31-.86,1.17-1.08,2,.66,3,5.26,3.1,10.34,6.53,15.49,9.83,1.34.86,2.49,1.59,3.32-.74.54-1.52,1.76-2.8,2.59-4.23,9.11-15.75,19.16-30.89,29.74-45.69C159.41,171.31,160,170.45,160.73,169.51Zm49.7-58.84a3.21,3.21,0,0,0-.44-.75c-2.21-2.34-4.45-4.66-6.66-7-.77-.81-1.41-.59-2.11.07-1.57,1.47-3.14,2.94-4.74,4.37-13.28,11.87-25.71,24.6-37.77,37.7-.83.9-.86,1.26.1,2,3.38,2.78,6.69,5.65,10,8.51,1.06.92,1.73,1.06,2.71-.3,2.13-2.94,4.47-5.73,6.78-8.54q14.74-17.93,31.07-34.41C209.84,111.9,210.47,111.58,210.43,110.67Zm50.88-43.59c-1.19-1.68-2.42-3.34-3.56-5.06-.81-1.23-1.48-1.4-2.78-.45-3.25,2.39-6.69,4.53-10,6.85-9.94,7-19.62,14.26-29,22-1,.85-1.44,1.28-.27,2.43a39.32,39.32,0,0,1,4.53,5.28c1.28,1.77,2.17,1.73,3.75.25a400.23,400.23,0,0,1,36.22-30C260.7,68,261.22,67.74,261.31,67.08ZM275,57.9c.83-.08,1.5-1.06,2.38-1.64,7.1-4.66,14.41-9,21.71-13.33.65-.39,1.47-.57.93-1.59-.62-1.17-1.28-2.31-1.91-3.48-.48-.9-.95-1-2-.48-7.21,3.84-14.44,7.65-21.46,11.85-4.61,2.77-4.62,2.72-1.52,7.33C273.58,57.16,273.65,58,275,57.9Zm39.54-23.25a10.08,10.08,0,0,1,1.11-.71c7.81-3.66,15.51-7.57,23.53-10.8,1.42-.57,1.39-1.5.93-2.78-.59-1.6-1.48-1.92-3-1.26-7.85,3.42-15.94,6.29-23.66,10.06-.82.41-1.55.5-1.11,1.68A9.4,9.4,0,0,0,314.54,34.65ZM378.35,6l-.48.1c-7.44,2.22-14.87,4.46-22.33,6.62-1.61.47-1,1.55-.77,2.38.25,1.05.78,1.62,2.17,1.11,4.1-1.52,8.26-2.86,12.42-4.21,3.06-1,6.15-1.93,9.22-2.89.76-.24,1.48-.51,1-1.56C379.32,6.94,379.48,6,378.35,6Z"/><path class="cls-1" d="M287.34,71.46s-108,98-158,246l-3-15s-2-3,5.5-20C136.34,271.46,186.34,142.46,287.34,71.46Z"/></g></g></svg>