<svg xmlns="http://www.w3.org/2000/svg" xmlns:xlink="http://www.w3.org/1999/xlink" viewBox="0 0 993.94 317.46"><defs><style>.cls-1{fill:url(#Gradiente_sem_nome_5);}.cls-2{fill:#f29e25;}</style><linearGradient id="Gradiente_sem_nome_5" y1="144.17" x2="423.84" y2="144.17" gradientUnits="userSpaceOnUse"><stop offset="0" stop-color="#fcd128"/><stop offset="1" stop-color="#f89833"/></linearGradient></defs><title>Ativo 11</title><g id="Camada_2" data-name="Camada 2"><g id="Camada_1-2" data-name="Camada 1"><path class="cls-1" d="M165.32,118.16c2.13-1.18,3.52-3.18,5.25-4.79,9.49-8.77,19-17.49,29-25.7a542.83,542.83,0,0,1,47.68-35.1,399.66,399.66,0,0,1,46.55-26,310.67,310.67,0,0,1,37.55-15A235.66,235.66,0,0,1,370.09,2.4,190.29,190.29,0,0,1,407.72.2C413,.48,418.27,1.33,423.84,2c-6.69,1.64-13.14,3.11-19.53,4.84-5.59,1.53-11.12,3.29-16.64,5.07a317.9,317.9,0,0,0-33.6,13Q339.9,31.25,326.37,39q-15.17,8.7-29.44,18.78c-8.18,5.75-16.11,11.82-23.86,18.13a480.18,480.18,0,0,0-36.31,33,579.44,579.44,0,0,0-43,48.34Q176.5,179,161.23,202.14q-14.73,22.34-27.6,45.8Q123,267.35,113.56,287.39a10.72,10.72,0,0,1-.59.94c-1.55-2.69-1.78-5.65-2.83-8.34-1.84-4.7-3.43-9.5-5.28-14.2a2.73,2.73,0,0,1,.11-2.49c3.61-7.92,7.65-15.62,11.69-23.32.85-1.64.94-2.43-.9-3.47-5.6-3.18-11.07-6.58-16.54-10-1.71-1.06-2.8-1.09-3.87.9-1.28,2.39-3,4.56-4.36,6.88-.9,1.48-1.48,1.19-2.22-.08-16-27.35-35.7-51.76-58-74.16a392.47,392.47,0,0,0-29-26.6c-2-1.67-2-3.36-1.31-5.47,1.93-5.67,6.12-9.46,11-12.27a50.65,50.65,0,0,1,24-6.72c6.53-.17,12.33,2.4,17.92,5.34,10.42,5.46,18.43,13.78,26.18,22.42,11.16,12.42,22.45,24.72,33.68,37.08.33.37.62.78,1,1.32,5-7.22,10.83-13.42,16.42-19.79a8,8,0,0,0,.76-1.26c.94-.13,1.34-1,1.86-1.56,7.51-8.49,15.27-16.73,23.08-24.94C159.35,124.47,162.77,121.73,165.32,118.16Zm-4.59,51.35c-.17-.78-.9-1.15-1.44-1.59-3.52-2.85-7.13-5.59-10.6-8.5-1.33-1.12-2-.89-3,.37-6.4,8-13.05,15.79-19.3,23.89-6.66,8.63-13,17.52-19.42,26.31-.86,1.17-1.08,2,.66,3,5.26,3.1,10.34,6.53,15.49,9.83,1.34.86,2.49,1.59,3.32-.74.54-1.52,1.76-2.8,2.59-4.23,9.11-15.75,19.16-30.89,29.74-45.69C159.41,171.31,160,170.45,160.73,169.51Zm49.7-58.84a3.21,3.21,0,0,0-.44-.75c-2.21-2.34-4.45-4.66-6.66-7-.77-.81-1.41-.59-2.11.07-1.57,1.47-3.14,2.94-4.74,4.37-13.28,11.87-25.71,24.6-37.77,37.7-.83.9-.86,1.26.1,2,3.38,2.78,6.69,5.65,10,8.51,1.06.92,1.73,1.06,2.71-.3,2.13-2.94,4.47-5.73,6.78-8.54q14.74-17.93,31.07-34.41C209.84,111.9,210.47,111.58,210.43,110.67Zm50.88-43.59c-1.19-1.68-2.42-3.34-3.56-5.06-.81-1.23-1.48-1.4-2.78-.45-3.25,2.39-6.69,4.53-10,6.85-9.94,7-19.62,14.26-29,22-1,.85-1.44,1.28-.27,2.43a39.32,39.32,0,0,1,4.53,5.28c1.28,1.77,2.17,1.73,3.75.25a400.23,400.23,0,0,1,36.22-30C260.7,68,261.22,67.74,261.31,67.08ZM275,57.9c.83-.08,1.5-1.06,2.38-1.64,7.1-4.66,14.41-9,21.71-13.33.65-.39,1.47-.57.93-1.59-.62-1.17-1.28-2.31-1.91-3.48-.48-.9-.95-1-2-.48-7.21,3.84-14.44,7.65-21.46,11.85-4.61,2.77-4.62,2.72-1.52,7.33C273.58,57.16,273.65,58,275,57.9Zm39.54-23.25a10.08,10.08,0,0,1,1.11-.71c7.81-3.66,15.51-7.57,23.53-10.8,1.42-.57,1.39-1.5.93-2.78-.59-1.6-1.48-1.92-3-1.26-7.85,3.42-15.94,6.29-23.66,10.06-.82.41-1.55.5-1.11,1.68A9.4,9.4,0,0,0,314.54,34.65ZM378.35,6l-.48.1c-7.44,2.22-14.87,4.46-22.33,6.62-1.61.47-1,1.55-.77,2.38.25,1.05.78,1.62,2.17,1.11,4.1-1.52,8.26-2.86,12.42-4.21,3.06-1,6.15-1.93,9.22-2.89.76-.24,1.48-.51,1-1.56C379.32,6.94,379.48,6,378.35,6Z"/><path d="M287.34,71.46s-108,98-158,246l-3-15s-2-3,5.5-20C136.34,271.46,186.34,142.46,287.34,71.46Z"/><path d="M303.64,204.35H254.48l-9.8,26.34H233.2L273,125.18h12.1l39.81,105.51H313.28Zm-3.22-8.58-21.28-58.19-21.6,58.19Z"/><path d="M412.05,147.08v83.61H401.33V210q-3.21,10.88-11.64,16.54a33.71,33.71,0,0,1-19.29,5.67q-14.7,0-23.81-9.27t-9.11-27.18V147.08H348.2v47.77q0,13.78,6.89,21.06t18.83,7.27q12.56,0,20-8t7.42-23.66v-44.4Z"/><path d="M473.46,221.19v9.5h-10q-12.09,0-18.07-5.75t-6-19.37V156.42H426.75v-9.34h12.71V126h10.87v21.13h23v9.34h-23v49.31q0,8.88,3.22,12.17t11.33,3.29Z"/><path d="M550.25,151.14A36.69,36.69,0,0,1,565,166q5.36,9.72,5.36,22.89T565,211.7a37.31,37.31,0,0,1-14.78,14.85,43.42,43.42,0,0,1-21.36,5.21,43.87,43.87,0,0,1-21.44-5.21,37.43,37.43,0,0,1-14.93-14.93q-5.44-9.72-5.44-22.74,0-13.17,5.44-22.89a37,37,0,0,1,14.93-14.85A44.38,44.38,0,0,1,528.89,146,43.93,43.93,0,0,1,550.25,151.14ZM513.57,159a27.65,27.65,0,0,0-11.33,11.26q-4.29,7.58-4.28,18.6t4.28,18.53a27.81,27.81,0,0,0,11.33,11.18,32.65,32.65,0,0,0,15.32,3.67A31.84,31.84,0,0,0,544,218.59a27.89,27.89,0,0,0,11.26-11.18q4.28-7.5,4.28-18.53t-4.28-18.6A27.73,27.73,0,0,0,544,159a31.84,31.84,0,0,0-15.08-3.67A32.65,32.65,0,0,0,513.57,159Z"/><path class="cls-2" d="M614.18,122.27l22.36,74.57,22.2-74.57h36.14L658.44,230.69h-44L578,122.27Z"/><path class="cls-2" d="M705.45,108.57q5.35-4.83,14.24-4.83,8.73,0,14.08,4.83a15.64,15.64,0,0,1,5.36,12.17,15.24,15.24,0,0,1-5.36,11.94q-5.35,4.75-14.08,4.75-8.88,0-14.24-4.75a15.24,15.24,0,0,1-5.36-11.94A15.64,15.64,0,0,1,705.45,108.57Zm31.08,35.75v86.37h-34V144.32Z"/><path class="cls-2" d="M813.94,151.75a37.13,37.13,0,0,1,13.24,22.43h-31.7q-2-7.35-10.41-7.35c-3.16,0-4.75,1.23-4.75,3.68q0,2.6,3.45,4a69.63,69.63,0,0,0,11,2.91,108.57,108.57,0,0,1,16.77,4.36,29.43,29.43,0,0,1,12,8.19q5.06,5.67,5,15.47a22.76,22.76,0,0,1-4.29,13.63,27.88,27.88,0,0,1-12.55,9.34,51.32,51.32,0,0,1-19.45,3.37q-18.69,0-29.71-8t-13.63-23h32.62q.91,7.5,10.57,7.5,5.21,0,5.2-3.68,0-2.9-3.52-4.28a65,65,0,0,0-11.33-2.76A123.67,123.67,0,0,1,766,193.32a27.17,27.17,0,0,1-11.41-7.81q-4.9-5.5-4.9-15.16a24.36,24.36,0,0,1,4.13-13.93,27.53,27.53,0,0,1,12.25-9.65q8.11-3.53,19.76-3.52Q803.45,143.25,813.94,151.75Z"/><path class="cls-2" d="M894.25,201.74v28.95H881.39q-35.52,0-35.53-35.38V172.65H835.14V144.32h10.72V123.5h34v20.82H894v28.33H879.86v23.28c0,2,.48,3.52,1.45,4.44s2.58,1.37,4.83,1.37Z"/><path class="cls-2" d="M971.74,148.61A39.45,39.45,0,0,1,988,164q5.9,10,5.9,23.5T988,211a39.45,39.45,0,0,1-16.3,15.39,53.89,53.89,0,0,1-46.86,0A39.48,39.48,0,0,1,908.57,211q-5.9-10-5.9-23.51t5.9-23.5a39.48,39.48,0,0,1,16.31-15.39,53.89,53.89,0,0,1,46.86,0Zm-31.4,27.79q-3.21,3.75-3.21,11.1t3.14,11.11a10.41,10.41,0,0,0,16,0q3.21-3.75,3.22-11.11t-3.22-11.1a10.33,10.33,0,0,0-15.93,0Z"/><path d="M258.31,276.25a8.12,8.12,0,0,1-3.3,3.27,11.18,11.18,0,0,1-5.56,1.26,13.29,13.29,0,0,1-5.74-1.19,10.21,10.21,0,0,1-4-3.25,9.29,9.29,0,0,1-1.73-4.63h3.51a7.53,7.53,0,0,0,1.1,2.94,7,7,0,0,0,2.61,2.45,8.22,8.22,0,0,0,4.13,1,6.55,6.55,0,0,0,4.87-1.71,5.91,5.91,0,0,0,1.68-4.32,5.65,5.65,0,0,0-1.11-3.63,7.59,7.59,0,0,0-2.76-2.16,38.06,38.06,0,0,0-4.48-1.66,40,40,0,0,1-5.06-1.93,8.51,8.51,0,0,1-3.25-2.73,8.83,8.83,0,0,1,1.32-11,10.64,10.64,0,0,1,7.32-2.37,11.34,11.34,0,0,1,7.53,2.33,9.13,9.13,0,0,1,3.3,5.79H255.1a6.86,6.86,0,0,0-2.25-3.8,7.16,7.16,0,0,0-5-1.66,6.88,6.88,0,0,0-4.7,1.52,6,6,0,0,0-.67,7.69,7.14,7.14,0,0,0,2.69,2,43.94,43.94,0,0,0,4.34,1.62,38.83,38.83,0,0,1,5.15,1.94,9,9,0,0,1,3.35,2.85,8.4,8.4,0,0,1,1.38,5A9.1,9.1,0,0,1,258.31,276.25Z"/><path d="M283.79,247v20.28q0,5.36,2.35,7.88a8.37,8.37,0,0,0,6.43,2.52,8.22,8.22,0,0,0,6.39-2.52c1.54-1.68,2.3-4.31,2.3-7.88V247h3.33v20.28q0,6.78-3.28,10.16a13.14,13.14,0,0,1-17.57,0q-3.27-3.37-3.28-10.16V247Z"/><path d="M346.14,272.28H330.9l-3,8.17H324.3l12.34-32.72h3.75l12.35,32.72h-3.61Zm-1-2.66-6.6-18.05-6.69,18.05Z"/><path d="M401.28,247l10.78,29.58L422.93,247h3.66l-12.44,33.48H410L397.62,247Z"/><path d="M449.81,247v33.48h-3.37V247Z"/><path d="M491.58,276.25a8.24,8.24,0,0,1-3.3,3.27,11.18,11.18,0,0,1-5.56,1.26,13.37,13.37,0,0,1-5.75-1.19,10.25,10.25,0,0,1-4-3.25,9.19,9.19,0,0,1-1.73-4.63h3.51a7.51,7.51,0,0,0,1.09,2.94,7.13,7.13,0,0,0,2.62,2.45,8.19,8.19,0,0,0,4.13,1,6.55,6.55,0,0,0,4.87-1.71,5.91,5.91,0,0,0,1.68-4.32,5.65,5.65,0,0,0-1.11-3.63,7.68,7.68,0,0,0-2.76-2.16,38.32,38.32,0,0,0-4.49-1.66,39.76,39.76,0,0,1-5-1.93,8.54,8.54,0,0,1-3.26-2.73,8.82,8.82,0,0,1,1.33-11,10.6,10.6,0,0,1,7.32-2.37,11.3,11.3,0,0,1,7.52,2.33,9.13,9.13,0,0,1,3.3,5.79h-3.56a6.92,6.92,0,0,0-2.25-3.8,7.16,7.16,0,0,0-5-1.66,6.91,6.91,0,0,0-4.71,1.52,6,6,0,0,0-.66,7.69,7.18,7.18,0,0,0,2.68,2,44.29,44.29,0,0,0,4.35,1.62,38.83,38.83,0,0,1,5.15,1.94,9,9,0,0,1,3.35,2.85,8.4,8.4,0,0,1,1.38,5A9.1,9.1,0,0,1,491.58,276.25Z"/><path d="M533.53,247v2.7H524v30.78h-3.33V249.67h-9.49V247Z"/><path d="M576.75,248.77a15.55,15.55,0,0,1,5.82,6.08,19.59,19.59,0,0,1,0,17.69,15.41,15.41,0,0,1-5.82,6.1,17.05,17.05,0,0,1-16.72,0,15.41,15.41,0,0,1-5.82-6.1,19.59,19.59,0,0,1,0-17.69,15.55,15.55,0,0,1,5.82-6.08,17.12,17.12,0,0,1,16.72,0Zm-14.94,2.61a12.1,12.1,0,0,0-4.6,4.9,17.07,17.07,0,0,0,0,14.81,12.08,12.08,0,0,0,4.6,4.89A13.51,13.51,0,0,0,575,276a12.08,12.08,0,0,0,4.6-4.89,17.07,17.07,0,0,0,0-14.81,12.1,12.1,0,0,0-4.6-4.9,13.51,13.51,0,0,0-13.16,0Z"/><path d="M623.9,280.45l-9.16-14h-5.41v14H606V247h10.26c3.77,0,6.58.88,8.43,2.66a9.46,9.46,0,0,1,2.78,7.17,9.23,9.23,0,0,1-2.35,6.65,10.61,10.61,0,0,1-6.82,2.94l9.45,14.06ZM609.33,264H616q8.09,0,8.08-7T616,249.87h-6.64Z"/><path d="M651.54,247v33.48h-3.37V247Z"/><path d="M693.29,272.28H678l-3,8.17h-3.56l12.35-32.72h3.75l12.35,32.72h-3.61Zm-1-2.66-6.6-18.05L679,269.62Z"/><path d="M770.84,248.77a15.53,15.53,0,0,1,5.81,6.08,19.51,19.51,0,0,1,0,17.69,15.38,15.38,0,0,1-5.81,6.1,17.05,17.05,0,0,1-16.72,0,15.41,15.41,0,0,1-5.82-6.1,19.59,19.59,0,0,1,0-17.69,15.55,15.55,0,0,1,5.82-6.08,17.12,17.12,0,0,1,16.72,0Zm-14.94,2.61a12.13,12.13,0,0,0-4.61,4.9,17.16,17.16,0,0,0,0,14.81A12.1,12.1,0,0,0,755.9,276a13.51,13.51,0,0,0,13.16,0,12.08,12.08,0,0,0,4.6-4.89,17.07,17.07,0,0,0,0-14.81,12.1,12.1,0,0,0-4.6-4.9,13.51,13.51,0,0,0-13.16,0Z"/><path d="M825.12,280.45h-3.38l-18.33-28v28H800V247h3.37l18.33,28V247h3.38Z"/><path d="M850.9,277.79h12.16v2.66H847.53V247h3.37Z"/><path d="M886.19,247v33.48h-3.38V247Z"/><path d="M933.68,280.45H930.3l-18.33-28v28H908.6V247H912l18.33,28V247h3.38Z"/><path d="M959.46,249.67v12.64h13.06v2.61H959.46v12.77H974v2.76H956.09V247H974v2.7Z"/></g></g></svg>